<svg id="Layer_1" data-name="Layer 1" xmlns="http://www.w3.org/2000/svg" viewBox="0 0 442.27 383.1"><defs><style>.cls-1{fill:#fff;stroke:#d1d1d1;stroke-miterlimit:10;}</style></defs><title>bct-nettree</title><path class="cls-1" d="M137,95.61v-.27l-.19-.19L123.1,81.45l-.19-.19H118a3.45,3.45,0,1,0,0,1.28h4.4l13.34,13.33v26.27l.19.19,4.43,4.43.19.19h21.19l.19-.19,6.42-6.42,3.49-3.49h58.86l3.49,3.49,10.26,10.26,6.71,6.71,4.84,4.84,2.32,2.32.19.19h120l-.75-1-1.1-1.49-1.25-1.69-.19-.26H359.15l-2.89-2.89-1.56-1.56-.18-.18h-.26l-6.79-.07h-.27l-.19.19-1.63,1.63-2.75,2.75H261.19l-2.75-2.75-6.71-6.71-10.26-10.26-8-8-.19-.19H168.51l-.19.19-8,8-1.8,1.8H143.89l-1.8-1.8-1.49-1.49V91.75l-.19-.19L126.8,78a3.67,3.67,0,0,0,.61-2h0a3.67,3.67,0,0,0-3.67-3.67h0a3.67,3.67,0,0,0-3.67,3.67h0a3.67,3.67,0,0,0,3.67,3.67h0a3.65,3.65,0,0,0,2.18-.72l13.4,13.4v27.09l.19.19.77.77,2.89,2.89.19.19H159l.19-.19,2.89-2.89,7-6.95h63.67l7,6.95,10.26,10.26,6.71,6.71,3.84,3.84.19.19h82.5l.19-.19,3.84-3.84.54-.54,6.25.06.47.48,4,4,.19.19h16l.5.67.91,1.23H259l-1.23-1.23-4.84-4.84-6.71-6.71L236,120.34l-4.58-4.58-.19-.19H171.28l-.19.19-4.58,4.58-5.33,5.33H141l-4-4.05v-26ZM126.29,75.94a2.56,2.56,0,0,1-2.55,2.55h0a2.56,2.56,0,0,1-2.55-2.55h0a2.56,2.56,0,0,1,2.55-2.55h0a2.54,2.54,0,0,1,1.25.33,2.59,2.59,0,0,1,.56.42,2.55,2.55,0,0,1,.75,1.8h0Z"/><path class="cls-1" d="M6.89,214.85a4.09,4.09,0,0,0,2.89,1.2h0a4.1,4.1,0,0,0,3.94-3h4.08l.19-.19.88-.88h0l3.28-3.28,3.33-3.33,27.85,0,3.36,3.36L58.07,210l.19.19h41.5L101.5,212l3.59,3.59.48.48,6.47,6.47,0,0,.16.16h10.68l.16-.16,0,0,2.59-2.59a3.46,3.46,0,1,0-.9-.9l-2.4,2.4h-9.62l-5.29-5.29-.57-.57L103.3,212l-2.82-2.82-.19-.19H58.79l-.28-.28-3.89-3.89-.56-.56-.08-.08-.1-.1h-.27l-28.39,0H25l-.07.07-.11.11-.52.52-3.89,3.89-3.08,3.08H13.87a4.08,4.08,0,0,0-1.19-2.68h0a4.12,4.12,0,0,0-.46-.4,4.07,4.07,0,0,0-2.42-.8h0a4.06,4.06,0,0,0-2.41.8,4.13,4.13,0,0,0-.46.4h0A4.08,4.08,0,0,0,5.7,212h0A4.07,4.07,0,0,0,6.89,214.85ZM7,212a2.82,2.82,0,0,1,.83-2h0a2.81,2.81,0,0,1,2-.82h0a2.8,2.8,0,0,1,2,.83h0a2.8,2.8,0,0,1,.83,2h0a2.82,2.82,0,0,1-2.81,2.81h0A2.82,2.82,0,0,1,7,212H7Z"/><path class="cls-1" d="M18.3,193.8a3.45,3.45,0,0,0-6.08-.64,3.52,3.52,0,0,0-.33.64,3.45,3.45,0,0,0,5,4.19l1.65,1.78,1.68,1.82.19.2H45.71l.19-.19,1.83-1.84,4.07-4.07h20l.19-.19,1.72-1.72.64-.64,4.09-4.09h4.25a3.45,3.45,0,1,0,0-1.28H77.88l-.19.19-1.25,1.25-3.93,3.93-.64.64-.64.63h-20l-.19.19-5.16,5.16-.74.75H21l-.69-.75-2.46-2.65a3.46,3.46,0,0,0,.43-3.33Z"/><path class="cls-1" d="M441.56,128.86H429.39l-.18.19-1.56,1.56-3.24,3.24H363.51l-3.24-3.24-3.49-3.49-.19-.19h-7.88l-.19.19L345,130.6l-5.73,5.73H262.44l-5.73-5.73-10.26-10.26L235,108.84l-.18-.18H160.32L147.67,96V87.19l-.19-.19L137,76.52V68.78l-.19-.19L133,64.77l-2.27-2.27-.18-.18H116.4l-.18.18-2.27,2.27-2.66,2.66H108.7a3.45,3.45,0,1,0,0,1.28h3.11l.14-.14,0,0,3.75-3.75,1.19-1.19H130l1.19,1.19,4.54,4.54V77l.19.19,10.48,10.49v8.82l.19.19,13,13,.18.18h74.45l10.41,10.41L254.9,130.6l6.71,6.71.11.11.19.19h77.93l.19-.19.11-.11,6.71-6.71,2.4-2.4h6.82l2.4,2.4,4.33,4.33.19.19h62l.19-.19,4.33-4.33.47-.47h12.34v-1.27Z"/><path class="cls-1" d="M217.67,130.6a3.45,3.45,0,1,0-1.28-6.23l-3.21-3.21L213,121h-28.8l-.18.19-2.38,2.38a3.44,3.44,0,1,0,.9.9l2.19-2.19h27.74l3,3a3.45,3.45,0,0,0,2.18,5.33Z"/><path class="cls-1" d="M84.92,229.36h0A4.08,4.08,0,0,0,89,225.27h0A4.08,4.08,0,0,0,88,222.53l-.14-.15a4.08,4.08,0,0,0-2.89-1.2h0A4.07,4.07,0,0,0,82,222.37h0l-.15.15a4.09,4.09,0,0,0-1,1.92H76.28l-.19.18-1.58,1.51-9,8.6-.2.19v14.51l-.1.09-4.15,4a3.44,3.44,0,1,0,.88.92l4.44-4.24.2-.19V235.47l9.77-9.33.43-.41h4.08a3.85,3.85,0,0,0,.07.41,4.07,4.07,0,0,0,1.1,2h0A4.08,4.08,0,0,0,84.92,229.36Zm-2.81-4.09a2.81,2.81,0,0,1,.83-2h0a2.83,2.83,0,0,1,1.34-.75,2.9,2.9,0,0,1,.64-.08h0a2.84,2.84,0,0,1,.65.08,2.82,2.82,0,0,1,2.16,2.73h0a2.82,2.82,0,0,1-2.8,2.81h0a2.81,2.81,0,0,1-2-.83h0a2.83,2.83,0,0,1-.69-1.12,2.77,2.77,0,0,1-.14-.86h0Z"/><path class="cls-1" d="M299,98.85v10.42l.19.19,10.89,10.89.47.47.19.19h18.4a4.08,4.08,0,0,0,1.14,2.23h0a4.08,4.08,0,0,0,2.89,1.2h0a4.09,4.09,0,0,0,4.08-4.08h0a4.09,4.09,0,0,0-4.08-4.08h0a4.07,4.07,0,0,0-2.87,1.19,4.11,4.11,0,0,0-1.16,2.28H311.27l-11-11V98.32l-.19-.19-7.85-7.85V63.08l5.43-5.43,2.7-2.7.19-.19V48.49a3.44,3.44,0,1,0-1.28,0v5.75l-3.42,3.42-4.71,4.71-.19.19V90.81l.19.19Zm31.36,21.49a2.82,2.82,0,0,1,2.8-2.81h0a2.82,2.82,0,0,1,2.81,2.8h0a2.82,2.82,0,0,1-2.81,2.81h0a2.81,2.81,0,0,1-2-.83h0a2.81,2.81,0,0,1-.82-2h0Z"/><path class="cls-1" d="M85.14,46.68a3.45,3.45,0,0,0,1.95-.6L89,48l4.07,4.07.19.19H111.7l5.41,5.41.35.35.19.19h15.74V43.6l-.19-.19-8.68-8.68V27.28l-.19-.19L120,22.77a3.45,3.45,0,1,0-.9.9l4.14,4.13v7.46l.19.19,8.68,8.68V56.91H118.18l-5.76-5.76-.19-.19H93.78l-3-3L88,45.18a3.45,3.45,0,1,0-2.85,1.5Z"/><path class="cls-1" d="M158.38,67.22a3.45,3.45,0,1,0-3.3-2.46A3.45,3.45,0,0,0,158.38,67.22Z"/><path class="cls-1" d="M251.12,52.28a3.45,3.45,0,0,0,.64-6.84V36.65l3.83-3.83.5-.5h5.42l.19-.19,10.8-10.8.19-.19v-.27l-.16-12.43,0-1.22.57-.57a3.45,3.45,0,1,0-.9-.9l-.76.76-.19.19V7l0,3.78.13,9.87L261,31h-5.42l-.19.19-1.59,1.59-3.12,3.12-.19.19v9.31a3.45,3.45,0,0,0,.64,6.84Z"/><path class="cls-1" d="M128.5,35.71a4.08,4.08,0,0,0,2.89,1.2h0a4.06,4.06,0,0,0,2.28-.7l3.15,3.46v14l.19.19,3.81,3.81,6.57,6.57.18.18h7.35V63.14h-6.81l-5.49-5.49-4.53-4.53V39.18l-.17-.18-3.33-3.65a4.08,4.08,0,0,0,.87-2.51h0a4.09,4.09,0,0,0-4.08-4.08h0a4.08,4.08,0,0,0-4.08,4.08h0A4.08,4.08,0,0,0,128.5,35.71Zm.08-2.89a2.82,2.82,0,0,1,2.8-2.81h0a2.82,2.82,0,0,1,2.81,2.81h0a2.81,2.81,0,0,1-.69,1.85l-.47.43a2.81,2.81,0,0,1-1.64.53h0a2.82,2.82,0,0,1-2.81-2.8h0Z"/><path class="cls-1" d="M146.34,6.9a3.46,3.46,0,0,0,1.72-.45l3.19,3.74V24.32l.19.19,8.31,8.31,1.11,1.11.19.19h7.49L180,45.56l.18.18h19.4L201.75,48l3,3.1.19.19h10.44l6.38,6.38,5,5V68.3a3.45,3.45,0,1,0,1.27,0V62.14l-.18-.19-4.3-4.3-7.47-7.47-.19-.19H205.48l-2-2-3.23-3.32-.19-.19H180.7L169.24,33l-.19-.18h-7.49l0,0-9-9V9.72l-.16-.18L149,5.62a3.45,3.45,0,1,0-2.69,1.28Z"/><path class="cls-1" d="M30.46,164.37a3.45,3.45,0,1,0,1.95,6.3l2.46,2.46.19.19H56.92l.19-.19,1.61-1.61,14.76-14.76H84.53l15.87,15.87.19.19h6.26l5.62,5.62a3.47,3.47,0,1,0,.9-.9l-5.81-5.81-.19-.19h-6.25l-15-15-.83-.83-.19-.19H73l-.19.19-.83.83L57.16,171.28l-.77.77H35.59l-2.28-2.28a3.45,3.45,0,0,0-2.85-5.4Z"/><path class="cls-1" d="M11.79,150.16a4.08,4.08,0,0,0,1,1.69h0a4.08,4.08,0,0,0,2.89,1.2h0a4,4,0,0,0,2.65-1l.42.42,1.79,1.79,1.08,1.08v13.41l.19.19,10.1,10.1.19.19H35A3.45,3.45,0,1,0,35,178H32.65l-9.73-9.73V154.83l-.19-.19-2.16-2.16-1.39-1.39a4,4,0,0,0,.42-.94,4.11,4.11,0,0,0,.18-1.19h0a4.08,4.08,0,0,0-3.32-4,4.17,4.17,0,0,0-.76-.07h0A4.09,4.09,0,0,0,11.61,149h0A4.11,4.11,0,0,0,11.79,150.16Zm1.09-1.2a2.82,2.82,0,0,1,2.8-2.81h0A2.82,2.82,0,0,1,18.51,149h0a2.8,2.8,0,0,1-.26,1.19l0,0,0,0-.43.43-.45.45.13.13a2.81,2.81,0,0,1-1.75.61h0a2.81,2.81,0,0,1-2-.83h0a2.81,2.81,0,0,1-.82-2h0Z"/><path class="cls-1" d="M119,317.1l-3.52-3.52-.19-.19h-2.86a3.46,3.46,0,1,0,0,1.28h2.33l2.43,2.43,1.51,1.51.19.19h15.44l.19-.19L136,317.1l3.14-3.14.19-.19v-7.86l1.07-1.07,1.9-1.9,1.23-1.23,2.17-2.17,4.12-4.12.19-.19v-11l12.63-12.63h75.15l.19-.19,1.87-1.87,12.29-12.3,7.68-7.68L265,244.4h33.58l5.12,5.12,5.59,5.59v3.73l-1.64-1.64-7.68-7.68L298.43,248l-.19-.19H263.59l-.19.19-1.52,1.52-7.67,7.68-12.29,12.3-4.36,4.36H164.92l-.19.19-5,5-.19.19v3.51a3.45,3.45,0,1,0,1.28,0v-3l4.61-4.61h72.64l.19-.19,5.45-5.45L256,257.2l7.67-7.68.43-.43h33.59l.43.43,7.68,7.68,3.63,3.63,1.09,1.09v-7.34l-.18-.19-4.87-4.87-6.21-6.21-.18-.18H264.44l-.18.18L258,249.53l-7.67,7.68-12.3,12.3-.78.78H162.15l-.19.19-13,13-.19.19v11l-4.83,4.83-2.17,2.17-1.23,1.23-1.9,1.9-.35.35-.18.18v7.87l-3.85,3.85-.42.42H119.44Z"/><path class="cls-1" d="M274.79,48a3.45,3.45,0,0,0,1.48,6.11v7.45l.19.19,3,3,6.76,6.76V93.79l.18.18,9,9v8l.18.18,9.22,9.22,1.06,1.06-9.2,9.2L294.25,133H263l-2.41-2.41-10.26-10.26-14.68-14.68-.19-.19H166.55l-3.12-3.12a3.45,3.45,0,1,0-.9.9l3.31,3.31.19.19h68.91l13.59,13.59,10.26,10.26,3.5,3.5.19.19h32.32l.19-.19,3.5-3.5,8.75-8.75.45-.45-.45-.45-.61-.61-9.94-9.94v-8l-.18-.19-9-9V71l-.18-.19-6-6L277.54,61V54.09A3.45,3.45,0,1,0,274.79,48Z"/><path class="cls-1" d="M70.46,39.75a3.44,3.44,0,0,0,1.95-.6L81.24,48l6.56,6.56.19.19h13.87l2.93,2.92,2.56,2.56.19.19h23.57l4.37,4.37,3,3v5.52l.19.19.21.21,2.23,2.23,3.1,3.1.19.19h15.25L172.48,92l.19.19h9.73L193,102.83l.19.19h44.93l7.84,7.85,1.09,1.09v-7.62l-.19-.19-8.31-8.31-.19-.19H211.19l-8.35-8.36,3.38-3.37H212a3.45,3.45,0,0,0,6.72,0h22.55l11.43,11.43v22.26l.19.19,2.55,2.55L265.7,130.6l.45.45.19.19h23l.19-.19.45-.45,2.87-2.87,1.09-1.09H269.36l-6.3-6.3-4.64-4.64V90.81l-.19-.19L243.54,75.93l-2.23-2.23L234,66.41v-6.9a4.14,4.14,0,0,0,.75,1h0a4.08,4.08,0,0,0,2.89,1.2h0a4.09,4.09,0,0,0,4.08-4.08h0a4.08,4.08,0,0,0-1-2.67l5.7-5.69.19-.19V38.89l-.19-.19L243.72,36V18.14l-.19-.19-5.41-5.41-.19-.19h-7.76l-1.43-1.43a3.44,3.44,0,1,0-.9.9l1.62,1.62.19.19h7.76l5,5V36.51l.19.19,2.72,2.72v9.15l-5.59,5.59a4.08,4.08,0,0,0-2.11-.59h0a4.08,4.08,0,0,0-4.07,4.08h0a4.07,4.07,0,0,0,.33,1.6l-.07-.07-1.54-1.54L222.61,48,215.68,41l-.19-.19h-19.7l-3.69-3.69-.19-.19h-8.6l-4.17-4.17-8.75-8.75V8.27l-.25-.19-1.21-.95a3.45,3.45,0,1,0-.79,1l1,.76V24.6l.19.19,8,8,5.26,5.26.19.19h8.61L195.08,42l.19.19H215L220.81,48l9.67,9.67,2.26,2.26v7l.19.19,6.58,6.58,2.23,2.23,15.41,15.41v24.89l.19.19,3.93,3.93,7.39,7.39.19.19h22.06l-2,2h-22l-9.62-9.62L254,117.08V94.82l-.19-.19L242,82.83l-.18-.18h-23a3.45,3.45,0,0,0-6.83,0h-6.28l-.18.18-4,4-.45.45.45.45,9,9,.19.19h27.19l7.93,7.93v4l-6.94-6.94-.19-.19H193.71L183.11,91.13l-.19-.19h-9.73L160.37,78.13l-.19-.19H144.93l-2-2-2.23-2.23-.93-.93V67.25l-.19-.19-2.3-2.3-5.46-5.46-.19-.19H108.06l-1.47-1.47-4-4-.19-.19H88.52L83,48l-9.73-9.73a3.45,3.45,0,1,0-2.85,1.5Zm164.38,17.9a2.82,2.82,0,0,1,2.8-2.81h0a2.82,2.82,0,0,1,2.81,2.81h0a2.82,2.82,0,0,1-2.81,2.81h0a2.81,2.81,0,0,1-2-.83h0a2.81,2.81,0,0,1-.82-2h0Z"/><path class="cls-1" d="M249.86,331.9l.19-.19V321.12a4.08,4.08,0,0,0,3.36-4h0a4.08,4.08,0,0,0-4.08-4.08h0a4.07,4.07,0,0,0-2.87,1.19h0a4.08,4.08,0,0,0-1.2,2.89h0a4.08,4.08,0,0,0,3.54,4v10l-7.55,7.55-4.48,4.48-2.51,2.51-.19.19v17.91l-5.92,5.92h-7.91l-.19.19-1.54,1.54-2,2a3.46,3.46,0,1,0,.9.9l2.91-2.91.46-.46h7.91l.19-.19,6.3-6.3.19-.19V346.43l3.22-3.22,4.48-4.48Zm-2.54-12.81a2.81,2.81,0,0,1-.82-2h0a2.81,2.81,0,0,1,.83-2h0a2.8,2.8,0,0,1,2-.82h0a2.82,2.82,0,0,1,2.81,2.81h0a2.82,2.82,0,0,1-2.8,2.81h0A2.81,2.81,0,0,1,247.32,319.09Z"/><path class="cls-1" d="M298.56,264.59l-.19-.19H263.29l-.19.19-4.9,4.9-.39.39-.18.18v19.58l-9.89,9.89-2.17,2.17-1.23,1.23-1.9,1.9-10.84,10.84-.19.19v10.28l-4.76,4.76-7.81,7.81-4.48,4.48-3.42,3.42H194.16l-.18.18-9.69,9.69-.19.19v10.7a4.08,4.08,0,0,0-2.39,1.17h0a4.08,4.08,0,0,0-1.2,2.89h0a4.08,4.08,0,0,0,4.08,4.07h0a4.09,4.09,0,0,0,4.08-4.07v0h0a4.09,4.09,0,0,0-3.31-4V357.22l9.32-9.32h16.78l.18-.18,4.51-4.51,4.48-4.48,7.81-7.81,4-4,.19-.19V316.4l11.56-11.56,1.9-1.9,1.23-1.23,2.17-2.17,9.17-9.17.19-.18V270.61L260,269.5l3.81-3.81h34l3.81,3.81h0L295,276.12l-.19.19v13.28L289.42,295l-.19.19V309l-7.59,7.59a3.45,3.45,0,0,0-4.79,4.79l-2.51,2.51L272.14,326l-.19.19v3.25a3.45,3.45,0,1,0,1.28,0v-2.73l2.92-2.92,1.6-1.6a3.45,3.45,0,0,0,4.8-4.8l.34-.34,7.43-7.43.19-.19V295.72l5.42-5.42.19-.19V276.84l6.89-6.89.45-.45h0L303,269Zm-112,104.86a2.8,2.8,0,0,1,.83,2h0v0a2.82,2.82,0,0,1-2.81,2.79h0a2.82,2.82,0,0,1-2.81-2.79h0a2.82,2.82,0,0,1,.83-2h0a2.82,2.82,0,0,1,1.49-.78v0h1.18A2.8,2.8,0,0,1,186.58,369.46Z"/><path class="cls-1" d="M404.89,240l-.19-.19H342.63l-.19.19-9.52,9.52-7.67,7.68L318,264.47H307.12l-7.27-7.27-3.5-3.5-.19-.18H263.35l-.18.18-3.62,3.5-12.72,12.3-14,13.49H210.12l-.19.19-5.08,5.08H190.17l-.19.17L186.11,292l-.21.19v5.07a4.09,4.09,0,0,0-3.58,4.05h0c0,.12,0,.24,0,.36a4.07,4.07,0,0,0,1.18,2.51,4.09,4.09,0,0,0,2.38,1.17v2.33l-9.38,9.39-1.23,1.23-.19.19v9.31a3.46,3.46,0,0,0-2.8,3.09c0,.1,0,.2,0,.3a3.45,3.45,0,0,0,6.9,0c0-.1,0-.2,0-.3a3.46,3.46,0,0,0-2.8-3.09V319l1.95-1.94,8.67-8.67.19-.19v-2.9a4.09,4.09,0,0,0,3.31-3.64c0-.12,0-.25,0-.37h0a4.09,4.09,0,0,0-.41-1.78,4,4,0,0,0-.78-1.09h0a4.09,4.09,0,0,0-2.13-1.13v-4.56l3.49-3.23h14.71l.19-.19,5.08-5.08h22.72l.19-.18,15.1-14.59,12.72-12.3,2.49-2.41h31.78L298,257.2l8.36,8.36.19.19H318.5l.19-.19L327,257.2l7.67-7.68,8.43-8.43h61l7,7,.19.19h30.89V247H411.9ZM188.81,299.54a3,3,0,0,1-2.27,4.77h-.13a3,3,0,0,1-3-2.6,3.11,3.11,0,0,1,0-.39,3,3,0,0,1,3-3h.13A3,3,0,0,1,188.81,299.54Z"/><path class="cls-1" d="M285.22,272.77h1.54l-1.09-1.09-2.19-2.19-1.2-1.2-.19-.19H267.22l-.19.19-1.2,1.2-4.31,4.31-.19.19v20.44l-5.11,5.11-2.17,2.17-1.23,1.23-1.9,1.9L238.67,317.1l-2.37,2.37-.19.19v11l-.24.24-7.81,7.81-4.48,4.48-8.73,8.73H196.53l-.19.19-1,1a3.46,3.46,0,1,0,.9.9l.81-.81h18.34l.19-.19,9.82-9.82,4.48-4.48,7.33-7.33.18-.19v-11l3.09-3.08,12.26-12.26,1.9-1.9,1.23-1.23,2.17-2.17,4.39-4.39.19-.19V274.52l5-5,.11-.11h13.82l.11.11,2,2h-13l-.19.19-4,4-.19.19v21l-2.63,2.63-2.17,2.17-1.23,1.23-1.9,1.9-.47.47-.19.19v24.34l-1.08,1.08-7.81,7.81-4.48,4.48-1.68,1.68-.19.19V360h8.5l6.06,6.07v9.27l.19.19,2.17,2.17a3.45,3.45,0,1,0,.9-.9l-2-2v-9.26l-.19-.19-6.44-6.44-.19-.19h-7.74V345.6l2.4-2.4,4.48-4.48,7.81-7.81.37-.37.19-.19V306l1.19-1.19,1.9-1.9,1.23-1.23,2.17-2.17,1.92-1.92.19-.19v-21l3.65-3.65Z"/><path class="cls-1" d="M127.67,301.35h0a4.06,4.06,0,0,0-1.66.36,4.1,4.1,0,0,0-1.56,1.23,4.07,4.07,0,0,0-.81,1.9,4,4,0,0,0,0,.59h0a4.08,4.08,0,0,0,4.08,4.07h0a4.08,4.08,0,0,0,4.08-4.08h0a4,4,0,0,0,0-.59,4.07,4.07,0,0,0-.81-1.9,3.9,3.9,0,0,0-.34-.39l0,0,.81-.81.11-.1,2.07-2.07L143,290l.19-.19V262l3.58-3.58h16.47l9.27,9.27.19.19h62l.19-.19,10.52-10.52,7.67-7.68,9.3-9.3h47.19l6.59,6.59a4.07,4.07,0,0,0-1,2.71h0a4.09,4.09,0,0,0,4.08,4.07h0a4.09,4.09,0,0,0,4.08-4.08h0a4.09,4.09,0,0,0-4.08-4.08h0a4.1,4.1,0,0,0-2.06.56l-6.86-6.86-.07-.07-.12-.12H261.91l-.12.12-.07.07-10.39,10.39-7.67,7.68-9.43,9.43h-61L164,257.36l-.16-.16,0,0H146.27l0,0-.16.17-4,4-.19.19V289.3l-10.24,10.24-2.17,2.17-.06.06-.12-.06a4.09,4.09,0,0,0-1.68-.36h0Zm188.79-51.83a2.8,2.8,0,0,1,.66-1.8l.09.09.45-.45L318,247a2.79,2.79,0,0,1,1.24-.3h0a2.82,2.82,0,0,1,2.81,2.81h0a2.82,2.82,0,0,1-2.81,2.81h0a2.82,2.82,0,0,1-2.81-2.8h0ZM129,302.94l.3.18.33.33,0,0,0,0a2.8,2.8,0,0,1,.82,2h0a2.81,2.81,0,0,1-2.81,2.81h0a2.81,2.81,0,0,1-2.81-2.8h0a2.85,2.85,0,0,1,.06-.59,2.81,2.81,0,0,1,2.74-2.22h0A2.81,2.81,0,0,1,129,302.94Z"/><path class="cls-1" d="M89.56,317.1a4.06,4.06,0,0,0,.6-1.43h5l1.43,1.43,3.22,3.22,3.52,3.52.71.71.19.19h11.41l.19-.19.71-.71,2.26-2.26H135l.19-.19,4.3-4.3,2.4-2.4.19-.19v-6.69l3-3,1.61-1.61v16.65l-4,4-2.06,2.06-.19.19v11.65l-1,1-1.22,1.21a4.08,4.08,0,0,0-2.46-.83h0a4.07,4.07,0,0,0-2.88,1.19h0a4.08,4.08,0,0,0-1.2,2.89h0a4.09,4.09,0,0,0,4.08,4.08h0a4.09,4.09,0,0,0,4.08-4.08h0a4.09,4.09,0,0,0-.74-2.34l2.13-2.13.28-.28.19-.19V326.62l2.78-2.78,3.24-3.24.19-.19v-18.7h0v-1.54l-1.09,1.09-.46.46-1.23,1.23-1.9,1.9-2.27,2.27-.19.19V314l-3.12,3.12-3.21,3.21H118.31l-.19.19-3,3H104.8l-.93-.93-5.43-5.43-2.52-2.52-.19-.19h-5.5a4.09,4.09,0,0,0-4.06-3.65h0a4.08,4.08,0,0,0-2.87,1.19h0a4.08,4.08,0,0,0-1.2,2.89h0a4.09,4.09,0,0,0,4.08,4.08h0a4.1,4.1,0,0,0,3.39-1.81Zm49,26.11a2.82,2.82,0,0,1-2.81,2.81h0a2.82,2.82,0,0,1-2.81-2.8h0a2.81,2.81,0,0,1,.82-2h0a2.8,2.8,0,0,1,2-.83h0a2.82,2.82,0,0,1,2.81,2.81h0ZM89,315v.16a2.82,2.82,0,0,1-.8,1.63,2.87,2.87,0,0,1-.33.28,2.8,2.8,0,0,1-1.65.54h0a2.8,2.8,0,0,1-1.65-.54,2.9,2.9,0,0,1-.33-.28,2.81,2.81,0,0,1-.82-2h0a2.82,2.82,0,0,1,2.8-2.81h0A2.82,2.82,0,0,1,89,314.47Z"/><path class="cls-1" d="M122.76,334.4a3.45,3.45,0,0,0-5.4-2.85l-.63-.63-3.9-3.9-.19-.19h-9.27l-.19.19-3.9,3.9-4.45,4.45a4.08,4.08,0,0,0-2.33-.73h0a4.08,4.08,0,0,0-2.88,1.19h0a4.09,4.09,0,0,0-1.2,2.89h0a4.09,4.09,0,0,0,4.08,4.07h0a4.09,4.09,0,0,0,4.08-4.08h0a4.07,4.07,0,0,0-.83-2.47l.08-.08,5.25-5.25,2.81-2.81h8.21l2.81,2.81,1.54,1.54a3.45,3.45,0,1,0,6.3,1.95Zm-27.43,4.33a2.82,2.82,0,0,1-2.81,2.81h0a2.81,2.81,0,0,1-2.81-2.8h0a2.81,2.81,0,0,1,2.8-2.81h0a2.8,2.8,0,0,1,1.4.38l-.29.29.45.45.45.45.32-.32a2.8,2.8,0,0,1,.48,1.56h0Z"/><path class="cls-1" d="M141.07,351.64h.27l.18-.19,7.41-7.41.19-.19V339l.23-.23,7.81-7.81,3.38-3.38.19-.19v-9.13l-.19-.19-.94-.94-3.8-3.8v-7.37a4.07,4.07,0,0,0,1.92-1.08h0a4.09,4.09,0,0,0,1.07-1.9,4,4,0,0,0,.12-1h0c0-.08,0-.16,0-.24a4.07,4.07,0,0,0-.78-2.17,4.19,4.19,0,0,0-.4-.47,4.09,4.09,0,0,0-2.89-1.2h0a4.08,4.08,0,0,0-2.88,1.19h0a4.11,4.11,0,0,0-1.19,2.64c0,.08,0,.16,0,.24h0a4.08,4.08,0,0,0,1.19,2.88h0a4.09,4.09,0,0,0,2.59,1.18v7.8l.19.19,3.08,3.08,1.66,1.65v8.07l-4.1,4.1L148,338.24l-.19.19v4.9l-7,7H127.35l-.18.18L124.75,353a3.43,3.43,0,1,0,.85,1l2.29-2.29Zm13.75-46.87h0a2.81,2.81,0,0,1-2-.83h0a2.81,2.81,0,0,1-.64-1,2.77,2.77,0,0,1-.18-1h0c0-.08,0-.16,0-.24a2.8,2.8,0,0,1,.81-1.74h0a2.88,2.88,0,0,1,.55-.43,2.78,2.78,0,0,1,1.43-.4h0a2.82,2.82,0,0,1,2.8,2.57c0,.08,0,.16,0,.24h0a2.76,2.76,0,0,1-.18,1,2.82,2.82,0,0,1-2.63,1.83h0Z"/><path class="cls-1" d="M185.65,346.61a4.08,4.08,0,0,0,2.71,1h0a4.09,4.09,0,0,0,4.08-4.08h0c0-.12,0-.23,0-.35a4.09,4.09,0,0,0-4.07-3.73h0a4.07,4.07,0,0,0-2.88,1.19h0a4.08,4.08,0,0,0-1.18,2.53c0,.12,0,.24,0,.35h0a4.05,4.05,0,0,0,.56,2l-7.15,7.15-.19.19V366.3l-4.27,4.27a3.44,3.44,0,1,0,.9.9h0l4.45-4.45.19-.19V353.48l6.3-6.3Zm-.1-3.05a2.73,2.73,0,0,1,0-.35,2.8,2.8,0,0,1,.8-1.63h0a2.8,2.8,0,0,1,2-.83h0a2.82,2.82,0,0,1,2.79,2.46,2.85,2.85,0,0,1,0,.35h0a2.82,2.82,0,0,1-2.81,2.81h0a2.8,2.8,0,0,1-1.81-.67l0,0-.45-.45-.15-.15a2.79,2.79,0,0,1-.44-1.49h0Z"/><path class="cls-1" d="M168.21,330.93h0a4.09,4.09,0,0,0-4.08-4.08h0a4.08,4.08,0,0,0-4.07,4.09h0a4,4,0,0,0,.58,2.07l-5.72,5.72L151,342.67l-.19.19v8.66l-5.11,5.11h-11.3l-.18.32-1.62,2.82a3.46,3.46,0,1,0,1.1.64l.22-.38,1.22-2.12h11.09l.19-.19,5.49-5.49L152,352v-8.66l.18-.18,4.48-4.48,4.74-4.74a4.07,4.07,0,0,0,2.68,1h0a4.09,4.09,0,0,0,4.08-4.08Zm-1.27,0a2.82,2.82,0,0,1-2.8,2.81h0a2.82,2.82,0,0,1-1.78-.64h0l-.43-.43a2.8,2.8,0,0,1-.6-1.72h0a2.82,2.82,0,0,1,2.8-2.81h0a2.82,2.82,0,0,1,2.81,2.81h0Z"/><path class="cls-1" d="M349.26,146H281.17a42.76,42.76,0,0,1,7.67,3H257.63l-.1-.1-4-4-2.79-2.79-1.21-1.21-.19-.19h-20l-3.44-3.45-2-2-.19-.19H177.92l-3.28-3.29-1.2-1.2-1.28-1.28-.19-.19H135.37L131,124.76l-.19-.18H89.65l-.18.18-1.55,1.55-4.29,4.29-2.54,2.54H71.35l-.19.19-4,4-4.84,4.84-2.2,2.2H47.9l-2.2-2.2-4.84-4.84-6.71-6.71-4-4-.19-.19H23.29l-1.67-2.13a3.43,3.43,0,1,0-1,.78l1.86,2.38.19.25h6.71l3,3,6.71,6.71,4.84,4.84,2.79,2.79.5.5.19.19h13.3l.19-.19.49-.49,2.79-2.79L69,137.31l2.89-2.89h9.73l.19-.19,3.63-3.63,4.18-4.18.57-.57h40.09l3.36,3.36,1,1,.19.19h36.6l.19.19,1.07,1.07,4.5,4.5.19.19h45.68l1,1,4.53,4.53.19.19H248.8l.12.12,2.79,2.79,4,4,1.18,1.18,0,0,.17.17h34.06q1.62,1,3.13,2h-38.6l-2.22-2.22-1.2-1.2-4-4-1.51-1.51-.19-.19H227.48l-1.09-1.09-2.87-2.87-.19-.19H177.86l-1.79-1.79-5.92-5.92-.19-.19H133.29l-.61-.61L130,127.94l-.19-.19H90.9l-.19.19-2.66,2.66-4.9,4.9H73.29l-.19.19-1.63,1.63-4.84,4.84-2.79,2.79-4,4-1.2,1.2-2.32,2.32-3.21,3.21a3.44,3.44,0,1,0,.9.9l.1-.1,4-4,2.32-2.32,1.2-1.2,4-4,2.79-2.79,4.84-4.84.54-.54h9.86l.19-.19,6-6L91.43,129h37.88l1.57,1.57,1.7,1.7.19.19h36.67l4.83,4.83,2.87,2.88.19.19H222.8l1.78,1.78,2.18,2.18.19.19H246l.42.42,4,4,1.2,1.2,2.32,2.32,1,1,.19.19H296a44.34,44.34,0,0,1,4.63,4.26H237.13a18.89,18.89,0,0,0-2.54-3.18c-5.36-5.36-13.34-8.24-26-8.24H192.08l-1.52-1.54-.67-.68-.19-.19H174.95L173,142.16l-4.84-4.84-.24-.24-.19-.19H132.18l-6.28-6.28-.45-.45-.19-.19H98.66l-.19.19-.45.45-6.71,6.71-.54.54H78.64l-.19.19-4.12,4.12-.52.52a4.07,4.07,0,0,0-1.11-.52,4.11,4.11,0,0,0-1.15-.17h0a4.11,4.11,0,0,0-1.15.17,4.09,4.09,0,0,0-2.93,3.92h0A4.08,4.08,0,0,0,68.66,149h0a4.07,4.07,0,0,0,2.89,1.2h0A4.08,4.08,0,0,0,74.44,149h0a4.08,4.08,0,0,0,1.2-2.88h0a4.06,4.06,0,0,0-.88-2.53l.17-.17,1.21-1.21,3-3H91.31l.19-.19,1.63-1.63,6.07-6.07h25.54l6.07,6.07.66.66.19.19h35.57l4,4,2.79,2.79.22.22.19.19h14.76l1.12,1.14h-33v9.62h-9l-3.62-3.62-2.17-2.17.13-.15a4.07,4.07,0,0,0,.9-2.56h0a4.08,4.08,0,0,0-1-2.64l-.22-.24a4.08,4.08,0,0,0-2.89-1.2h0a4.08,4.08,0,0,0-2.88,1.19l-.23.25a4.08,4.08,0,0,0-1,2.64h0a4.09,4.09,0,0,0,.91,2.55,3.76,3.76,0,0,0,.29.32,4.07,4.07,0,0,0,2.89,1.2h0a4.08,4.08,0,0,0,2.06-.56l1.36,1.36,4,4,.71.71.19.19h9.57v2.19h-14l-3.08-3.08-4-4-2.32-2.32-1.2-1.2-.27-.27-3.75-3.75-2.79-2.79-2.32-2.32-.19-.19H98.24l-.19.19-2.32,2.32-1.36,1.36a4.07,4.07,0,0,0-2.42-.8h0a4.09,4.09,0,0,0-4.08,4.08h0a4.07,4.07,0,0,0,.61,2.14,4.14,4.14,0,0,0,.58.73h0a4.13,4.13,0,0,0,.55.46,4.07,4.07,0,0,0,2.33.73h0a4.08,4.08,0,0,0,2.33-.73,4,4,0,0,0,.55-.46,4.07,4.07,0,0,0,1.2-2.89h0a4.08,4.08,0,0,0-.45-1.85,4.24,4.24,0,0,0-.32-.52l2.27-2.27,1.23-1.23h24l1.23,1.23,2.79,2.79,3.52,3.52.5.5,1.2,1.2,2.32,2.32,4,4,4.17,4.17.19.19H157.3V170H143.69L130.23,156.5l-4-4-1.31-1.31-.19-.19H66.79l-.19.19-1.31,1.31-1.66,1.65a4.09,4.09,0,0,0-2-.51h0a4.07,4.07,0,0,0-2.88,1.19h0a4.09,4.09,0,0,0-1.2,2.89h0a4.09,4.09,0,0,0,4.08,4.07h0a4.09,4.09,0,0,0,4.08-4.08h0a4.08,4.08,0,0,0-1.1-2.78l2.45-2.44.22-.22H124.2l.22.22,4,4L143,171l.19.18H157.3V173H139.66l-15.44-15.45-.19-.19H104.91l-.19.19-4.64,4.64-.45.45.45.45,4.22,4.22.19.19h6.18l12,12,.18.18h28.47l-4.53,4.54H126.38l-.19.19-6.32,6.32h-7.52l-8.53-8.53-.19-.19H75.24l-.19.19-5.76,5.76H43.16l-.19.19-4,4H28.14A4.08,4.08,0,0,0,27,189.83h0a4.08,4.08,0,0,0-2.89-1.2h0a4.07,4.07,0,0,0-2.87,1.19h0a4.08,4.08,0,0,0-1.2,2.89h0a4,4,0,0,0,0,.43,4.17,4.17,0,0,0,.12.64,4.09,4.09,0,0,0,3.94,3h0a4.08,4.08,0,0,0,4-3.45h11.4l.19-.19h0l4-4H69.82L70,189l5.76-5.76h27.35l8.53,8.53.19.19h8.58l.19-.19,6.32-6.32H147.3l.19-.19,5.81-5.81,1.09-1.09h-31l-12-12-.19-.19H105l-3.58-3.58,4-4H123.5l15.45,15.45.19.19H157.3v8L149.54,190h-11.9a4.07,4.07,0,0,0-1.15-2.25h0a4.07,4.07,0,0,0-2.89-1.2h0a4.07,4.07,0,0,0-2.88,1.19h0a4.09,4.09,0,0,0-1.2,2.89h0a4.06,4.06,0,0,0,.87,2.5,3.87,3.87,0,0,0,.33.37l.29.27a4.07,4.07,0,0,0,2.59.93h0a4.07,4.07,0,0,0,2.59-.93l.29-.26a4.4,4.4,0,0,0,.33-.38,4.06,4.06,0,0,0,.82-1.87h12.43l.19-.19,1-1,6-6v2.76L151,193.17l-.64.64-1,1h-21l-.19.22-2.77,3.09a4.08,4.08,0,0,0-2.34-.74h0a4.07,4.07,0,0,0-2.88,1.19,4.08,4.08,0,0,0-1.2,2.89h0a4.06,4.06,0,0,0,.79,2.41l.24.29.16.18a4.29,4.29,0,0,0,.55.46,4.06,4.06,0,0,0,2.34.74h0a4.07,4.07,0,0,0,2.33-.74,4.24,4.24,0,0,0,.54-.45l.17-.18.24-.29a4.12,4.12,0,0,0,.61-1.22,4.05,4.05,0,0,0,.18-1.19h0a4.06,4.06,0,0,0-.82-2.45l2.62-2.92h21l.19-.19,2.07-2.07.64-.64,4.54-4.54v2.49l-2,2-.45.45-.19.19h0v2.43a4.08,4.08,0,0,0-3.55,4h0a4.06,4.06,0,0,0,.75,2.35,4.13,4.13,0,0,0,1.36,1.22,4.37,4.37,0,0,0,.66.29,4.12,4.12,0,0,0,1.31.22h0a4.13,4.13,0,0,0,1.31-.22,4.22,4.22,0,0,0,.66-.29l.16-.11v1.9H110.14l-.86-.86-.64-.64-.29-.29-1.22-1.22-2.86-2.86-1.51-1.51a3.45,3.45,0,0,0-.49-4.46,3.49,3.49,0,0,0-1-.64,3.47,3.47,0,0,0-2.81,0,3.48,3.48,0,0,0-1,.64,3.45,3.45,0,0,0,4.31,5.37l.61.61,2.86,2.86,1.22,1.22.29.29.64.64,2,2,.19.19H157.3v2h-2.5l-.18.19L151.8,212l-3.59,3.59L144.73,219H140a4.11,4.11,0,0,0,.74-.59,4.07,4.07,0,0,0,1.2-2.89h0a4.08,4.08,0,0,0-1.19-2.88,4.15,4.15,0,0,0-.93-.7,4.07,4.07,0,0,0-2-.5h0a4.08,4.08,0,0,0-2.88,1.19h0a4.08,4.08,0,0,0-1.2,2.89h0a4.07,4.07,0,0,0,1.19,2.88h0l.28.25-3.83,3.83-3.61,3.61-4.41,4.41H112.14l-4.41-4.41-3.61-3.61-1.41-1.4-5.57-5.57L95,213.43l-.19-.19H59L57.72,212l-3.29-3.29-.5-.5-.19-.19H25.48l-.19.19-.5.5L21.5,212l-3.59,3.59-7,7-3.61,3.61-1.4,1.4a3.43,3.43,0,1,0,.72,1.09l2.49-2.49,3.61-3.61,7-7L23.31,212l2.7-2.7h27.2l2.7,2.7,2.37,2.37.19.19H94.3l1,1,5.71,5.71,1.26,1.26,3.61,3.61,5.5,5.5.18.18h12.29l.18-.18,5.5-5.5,3.61-3.61,3.16-3.16a4.1,4.1,0,0,0,1.48.28h0a4.09,4.09,0,0,0,1.17-.17L136,222.53l-3.61,3.61-9.12,9.12H111.94l-9.12-9.12-3.61-3.61-4-4L95,218.3H73.21l-.19.18-4.24,4-1,1H53.62l-.19.19L51,226.14l-3,3H41.77l-.19.19-6.91,7L32,239.07l-2.07,2.11H27.58a3.45,3.45,0,1,0,0,1.28h2.9l.19-.19h0l3.14-3.19,2.65-2.69,5.84-5.94h6.18l.19-.19,4.11-4.11,1.37-1.37H68.29l.19-.18,2.16-2.06,3.09-3H94.46l3,3,3.61,3.61,10.21,10.21,0,0,.16.16h12.34l.16-.16,0,0,10.21-10.21,3.61-3.61,2.22-2.22h5.29l.19-.19,4.57-4.57L153.6,212l1.73-1.73h2v26H128l-.15.15,0,0-2.66,2.66-9.32,9.32h-5.09a3.45,3.45,0,0,0-6.84.64,3.5,3.5,0,0,0,0,.49,3.45,3.45,0,0,0,6.81.14h5.62l.14-.14,0,0L127,239.07l1.57-1.57H157.3V238h28.49l-1,1-.2.2H138l-.19.18-3.88,3.88-6.19,6.2-7.67,7.68-11.62,11.62-.67.67-1,1h-2.63a3.45,3.45,0,1,0,0,1.28h3.16l.19-.19,2.09-2.09,1.14-1.14,11.15-11.15,7.68-7.68,5.29-5.29,3.69-3.69H185.1l.18-.18,1.29-1.29,1-1h2.1l-1,1-4.25,4.25H137.77l-.18.18-6,6-7.67,7.68-8.29,8.29-.19.19v4.25a3.45,3.45,0,1,0,1.28,0V266.2l9-9,7.67-7.68,4.93-4.93H185l.19-.19,5.34-5.34,1-1H208c11.72,0,20.59-2.75,26.49-7.37h1.3l3,3a4.08,4.08,0,0,0-1,2.7h0a4.08,4.08,0,0,0,1,2.68l.18.19a4.08,4.08,0,0,0,2.89,1.2h0a4.07,4.07,0,0,0,2.88-1.19l.19-.2a4.07,4.07,0,0,0,1-2.69h0a4.07,4.07,0,0,0-1.19-2.88h0a4.08,4.08,0,0,0-2.89-1.2h0a4.09,4.09,0,0,0-2.07.57l-3.27-3.27-.19-.19H236a22.88,22.88,0,0,0,2.44-2.62H300q-1.12,1.11-2.32,2.15H258l-.19.19-7.26,7.26-2.7,2.69-10.46,10.46-2.58,2.58H223.84l-2.58-2.58-1-1-.19-.19h-5.87l-.19.19-1,1-2.85,2.85-4.83,4.83-1,1H181.94l-1-1-4.48-4.48h21.74l.18-.18,1.76-1.76a3.45,3.45,0,1,0-1.11-1.25,3.32,3.32,0,0,0,.21.35l-1.57,1.57H173.36l1.09,1.09,4.66,4.66,2.12,2.12.19.19h23.41l.19-.19,2.12-2.12,4.13-4.13,3.47-3.47h4.81l3.59,3.59.19.19h12l.19-.19,3.67-3.66,10.46-10.46,2.7-2.69,6.17-6.18h37.65c-.74.58-1.49,1.15-2.28,1.69h-34l-.18.19-4.3,4.3-2.7,2.69-10.46,10.46-7.68,7.68-.25.25H220.13l-.08-.25a4.08,4.08,0,0,0-3.87-2.78h0a4.08,4.08,0,0,0-2.87,1.19h0a4.09,4.09,0,0,0-1.2,2.89h0a4.09,4.09,0,0,0,4.08,4.07h0a4.09,4.09,0,0,0,4.07-3.87h14.55l.19-.19,1.34-1.34,7.68-7.68,10.46-10.46,2.69-2.69,3.22-3.22h31.49l-.51.33h.08v1.89H261.37l-.19.18-.82.82-2.69,2.69-10.46,10.46-7.67,7.68-6.42,6.42H174.73l-6.42-6.42-3.09-3.09-.19-.19H143.7l-.19.19-3.09,3.09-1.2,1.21-.19.19V286l-11.49,11.49-1.71,1.71h-3.27a3.45,3.45,0,0,0-6.83.37c0,.09,0,.18,0,.27a3.43,3.43,0,0,0,.57,1.9,3.45,3.45,0,0,0,5.76,0,3.42,3.42,0,0,0,.51-1.26h3.8l.19-.19.72-.72,2.5-2.51,10.34-10.34.19-.19V259.12l1.92-1.92,2-2h20.27l2,2,7.51,7.51.19.19h59.44l.19-.19,7.51-7.51,7.67-7.68,10.45-10.46,2.42-2.42h29.56V238h30.16v-1.36H442.27v-1.28H321.61v-7.63a4.08,4.08,0,0,0,.33-1.6h0a4.09,4.09,0,0,0-.33-1.59v-3.17l1.16,1.16,3.61,3.61,2.32,2.32.19.19H436.67v-4.41H436l-106.48-.46-1.24-1.25-6.71-6.7v-3h1.89l2.68,2.68.36.36,3.41,3.41.19.19h41.29l.19-.19,3.77-3.77,2.19-2.19,1.05-1.05h10l.48.48,2.76,2.76,3.77,3.77.18.18h42l-1.09-1.09-2.87-2.87L430.28,212,429,210.68l-.19-.19h-4.45a4.1,4.1,0,0,0-.76-1.81,4,4,0,0,0-.38-.44,4.07,4.07,0,0,0-2.89-1.2h0a4.07,4.07,0,0,0-2.88,1.19h0a4.07,4.07,0,0,0-1.2,2.89h0a4,4,0,0,0,.09.83,4.09,4.09,0,0,0,4,3.25h0a4.08,4.08,0,0,0,4-3.25c0-.07,0-.13,0-.2h3.92l.2.2,3.59,3.59,2.68,2.68h-38.4l-2.68-2.68-2.85-2.85-.74-.74-.74-.74-.19-.19H378.1l-.19.19-.74.74-1.49,1.5-2.09,2.09-2.68,2.68H330.67l-2.4-2.41-.28-.28L324.4,212l-.19-.19-.19-.19h-2.42V200h32.31a3.46,3.46,0,0,0,2.43,2.68,3.47,3.47,0,0,0,1.92,0,3.45,3.45,0,0,0,2.43-2.68h67a4.09,4.09,0,0,0,4,3.35h0a4.08,4.08,0,0,0,2.24-.67,4.13,4.13,0,0,0,.64-.52,4.09,4.09,0,0,0,1.16-2.34,4,4,0,0,0,0-.55h0a4.09,4.09,0,0,0-4.08-4.08h0a4.08,4.08,0,0,0-4,3.55h-67a3.45,3.45,0,0,0-6.78,0H321.61V188.52h78.52L399,187.43l-4.15-4.15-.19-.19H321.61v-3.43H442.27v-1.28H321.61v-5.72h27.64v-2.55h73.6l.18-.19,4-4,1.09-1.09H349.26v-5.64h21.16a3.45,3.45,0,0,0,6.79,0h65.06v-1.27H377.2a3.45,3.45,0,0,0-6.78,0H349.26v-4.26h93v-1.28h-93v-2h93v-1.27h-93Zm-274.89,0a2.81,2.81,0,0,1-2.81,2.81h0a2.82,2.82,0,0,1-2.81-2.8h0a2.82,2.82,0,0,1,2.8-2.81h0a2.8,2.8,0,0,1,1.43.39l.83.83,0,0a2.88,2.88,0,0,1,.29.5,2.79,2.79,0,0,1,.24,1.12h0Zm67.85,1.52a2.86,2.86,0,0,1-.34,1.36,2.74,2.74,0,0,1-1.3,1.2,2.88,2.88,0,0,1-1.17.25h0a2.77,2.77,0,0,1-1.15-.25,2.81,2.81,0,0,1-.84-.58,2.89,2.89,0,0,1-.47-.62,2.8,2.8,0,0,1-.35-1.35h0a2.81,2.81,0,0,1,.83-2,2.84,2.84,0,0,1,1-.66,2.79,2.79,0,0,1,.94-.17h0a2.82,2.82,0,0,1,2.81,2.81h0Zm-47.45-.79a2.81,2.81,0,0,1-.83,2l-.18.16a2.81,2.81,0,0,1-1.8.66h0a2.8,2.8,0,0,1-1.8-.66L90,148.8h0a2.81,2.81,0,0,1-.82-2h0a2.8,2.8,0,0,1,.71-1.86l.12-.13a2.81,2.81,0,0,1,2-.82h0a2.8,2.8,0,0,1,1.78.64l.21.19,0,0,.1.11a2.8,2.8,0,0,1,.71,1.85h0ZM64.48,157.73a2.82,2.82,0,0,1-2.81,2.81h0a2.82,2.82,0,0,1-2.81-2.8h0a2.81,2.81,0,0,1,.83-2h0a2.8,2.8,0,0,1,2-.83h0a2.8,2.8,0,0,1,1,.19l0,0,.1.1.35.35.45.45.21-.21a2.85,2.85,0,0,1,.45.67,2.8,2.8,0,0,1,.28,1.21h0Zm-37.56,35a2.79,2.79,0,0,1-.22,1.08,2.82,2.82,0,0,1-2.59,1.73h0a2.8,2.8,0,0,1-2-.83,2.83,2.83,0,0,1-.61-.91,2.8,2.8,0,0,1-.22-1.07h0a2.81,2.81,0,0,1,.83-2h0a2.81,2.81,0,0,1,2-.82h0a2.81,2.81,0,0,1,2,.83h0a2.8,2.8,0,0,1,.83,2h0Zm109.5-2.07a2.82,2.82,0,0,1-2.81,2.81h0a2.81,2.81,0,0,1-2-.83,2.81,2.81,0,0,1-.82-2h0a2.82,2.82,0,0,1,2.8-2.81h0a2.81,2.81,0,0,1,2,.83h0a2.81,2.81,0,0,1,.83,2h0Zm-10.6,10.79a2.81,2.81,0,0,1-.83,2,2.81,2.81,0,0,1-1.23.72,2.84,2.84,0,0,1-.75.1h0a2.82,2.82,0,0,1-2.54-1.61,2.79,2.79,0,0,1-.27-1.19h0a2.81,2.81,0,0,1,.54-1.65,2.87,2.87,0,0,1,.29-.33,2.8,2.8,0,0,1,2-.83h0a2.81,2.81,0,0,1,1.91.75l.08.07.06.06a3.12,3.12,0,0,1,.23.27,2.81,2.81,0,0,1,.54,1.65h0Zm14,16.1a2.82,2.82,0,0,1-2,.83h0a2.8,2.8,0,0,1-1.34-.34l-.3-.3-.06.06a3.1,3.1,0,0,1-.28-.25h0a2.8,2.8,0,0,1-.82-2h0a2.81,2.81,0,0,1,.83-2h0a2.81,2.81,0,0,1,2-.82h0a2.82,2.82,0,0,1,2.81,2.81h0A2.8,2.8,0,0,1,139.82,217.54Zm99.27,18.83a2.8,2.8,0,0,1,.82-2h0a2.8,2.8,0,0,1,2-.83h0a2.81,2.81,0,0,1,2,.83h0a2.82,2.82,0,0,1,.82,2h0a2.82,2.82,0,0,1-2.81,2.81h0a2.82,2.82,0,0,1-2.81-2.8h0ZM219,258.52a2.82,2.82,0,0,1-2.8,2.81h0a2.82,2.82,0,0,1-2.81-2.8h0a2.78,2.78,0,0,1,.32-1.31,2.82,2.82,0,0,1,.5-.68h0a2.81,2.81,0,0,1,2-.82h0a2.82,2.82,0,0,1,2.81,2.8h0Zm204.06-46.75c0,.07,0,.14-.05.2a2.81,2.81,0,0,1-2.67,2h0a2.81,2.81,0,0,1-2-.83,2.86,2.86,0,0,1-.7-1.15,2.81,2.81,0,0,1-.13-.83h0a2.81,2.81,0,0,1,.82-2h0a2.81,2.81,0,0,1,.6-.46,2.78,2.78,0,0,1,1.38-.37h0a2.81,2.81,0,0,1,2.74,2.18A3,3,0,0,1,423.06,211.77Zm6.7-14.53a2.8,2.8,0,0,1,2-.83h0a2.82,2.82,0,0,1,2.81,2.81h0a2.87,2.87,0,0,1-.05.55,2.82,2.82,0,0,1-2.75,2.26h0a2.81,2.81,0,0,1-2-.83,2.68,2.68,0,0,1-.71-1.44A2.93,2.93,0,0,1,429.76,197.24Zm-72.43-.31a2.35,2.35,0,0,1,2.35,2.35,2.41,2.41,0,0,1-.06.51,2.35,2.35,0,0,1-4.58,0,2.28,2.28,0,0,1-.06-.51A2.35,2.35,0,0,1,357.33,196.93Zm15.26-40.43a2.35,2.35,0,1,1-1.21,2.05A2.33,2.33,0,0,1,372.59,156.5Zm-128.26,56.1,3,3,5.73,5.73H241.65a23.41,23.41,0,0,0,1.58-8.61v-.08Zm14.12-42.48-2,2H240q.12-1,.15-2Zm-5.55,9.1h-15a18.93,18.93,0,0,0,1.09-2.46H254.9A17.74,17.74,0,0,0,252.9,179.22ZM212.49,208v.26c0,3.92-3.4,6.67-10.07,6.67h-15.3V203.46H210l.4.4.29.29.64.64.64.64A5.93,5.93,0,0,1,212.49,208Zm36.8-14.35H232.37a40.26,40.26,0,0,0-8.48-3.43h25.43c0,.62-.07,1.24-.07,1.87v.26C249.24,192.75,249.27,193.18,249.29,193.61Zm-62.17,7.68h15.43a15.69,15.69,0,0,1,5.61.89h-21Zm0-31.65h13.21a20.94,20.94,0,0,1,3.75.31h-17Zm20.5,1.58c.18.11.34.23.5.36l.94.94a5.39,5.39,0,0,1,1.08,3.36l-2.7-2.69-.19-.19H187.12v-1.77Zm-.89,3,3.27,3.27c-.66,3.19-3.78,4.92-9.54,4.92H187.12v-8.19ZM237,196.93a22.44,22.44,0,0,0-2.58-2h14.95q.09,1,.26,2Zm12.45-8H227a22.9,22.9,0,0,0,10.14-8.41h15A22.58,22.58,0,0,0,249.45,188.91Zm-11.19,9.3h11.62A19.05,19.05,0,0,0,256.15,209H243A19.18,19.18,0,0,0,238.26,198.21Zm28-26.23c-.53,0-1,0-1.56.09l6-6h36.18q.61,1,1.17,2l-1.22.72H271l-.18.18-3,3Q267,172,266.26,172Zm35.51-12.79a49.32,49.32,0,0,1,4.25,5.64h-35.9l-.19.19-7.37,7.37a15.3,15.3,0,0,0-6.29,3.1h-16.9a20.87,20.87,0,0,0,.47-2h17.09l.19-.19,3.32-3.32,1.09-1.09H240.21a20.53,20.53,0,0,0-2.32-9.65ZM155.89,194.33l.53-.53.64-.64.24-.24v3.89a4.06,4.06,0,0,0-1.41-.55Zm1.25,7.94a2.85,2.85,0,0,1-.45.37,2.81,2.81,0,0,1-1.53.46h0a2.8,2.8,0,0,1-1.53-.46,2.86,2.86,0,0,1-.45-.37,2.81,2.81,0,0,1-.83-2h0a2.94,2.94,0,0,1,0-.5,2.83,2.83,0,0,1,2.23-2.26v.1h1.28v-.05a2.82,2.82,0,0,1,1.25.73h0l.15.18v3.61C157.25,202.15,157.2,202.22,157.14,202.27Zm169.37,20.25,2.33,2.33.18.18h.27l106.11.45v1.87h-106l-1.23-1.23-3.61-3.61-3-3v-1.93Zm-17.83-7.24,0,0H282.32v1.28h25.57q-.71,1.18-1.47,2.32H282.73v1.28h22.83a50.61,50.61,0,0,1-4.29,5.29H239.42a21.35,21.35,0,0,0,1.68-2.94h15l0,0L255,221.47l-5.91-5.91L245.52,212l-.46-.46-.19-.19h-1.68c0-.33,0-.67,0-1h14.79a15.89,15.89,0,0,0,8.33,2.26,19,19,0,0,0,5.8-.84l0,0-.19.19-3.59,3.59L266.77,217a3.45,3.45,0,1,0,.77,1l2.51-2.51,2.68-2.68H304.4Zm-36.21-3.69h0c4.94-1.72,8.24-5.56,11-10.52l18.66,10.52Zm121.71-27.22,2.88,2.88H321.61v-2.88ZM282.76,183a31,31,0,0,0-2-3.36h7.71Zm-3-4.64a16,16,0,0,0-10.39-6.18l2.1-2.1h33.12l-14,8.27Zm145.26-12.28-2.74,2.74H349.26v-2.74Z"/></svg>